<?xml version="1.0" encoding="UTF-8"?>
<svg width="158px" height="216px" viewBox="0 0 158 216" version="1.1" xmlns="http://www.w3.org/2000/svg" xmlns:xlink="http://www.w3.org/1999/xlink">
    <title>F67D0A99-406F-4354-98D3-8D75BF849A97@3x</title>
    <g id="website" stroke="none" stroke-width="1" fill="none" fill-rule="evenodd">
        <g id="about-us" transform="translate(-1187.000000, -1579.000000)">
            <g id="block-3" transform="translate(-2.000000, 1422.000000)">
                <g id="company-logo" transform="translate(1189.000000, 157.000000)">
                    <path d="M43.1421848,139.800888 L6.94293519,155.576969 C3.46183412,157.093778 -0.376976263,154.32295 0.0297503222,150.587117 L14.2290014,23.8053426 C14.5931296,20.4585083 16.7393856,17.5583027 19.8578172,16.1991105 L56.0570668,0.423029411 C59.5378761,-1.09377955 63.3769783,1.67704776 62.9702517,5.41316953 L48.7710006,132.194655 C48.4068724,135.541778 46.2606165,138.441695 43.1421848,139.800888" id="Fill-1" fill="#F15D68"></path>
                    <path d="M41.4556891,214.14595 L9.04409902,190.786824 C5.92427318,188.538268 6.47208559,183.83972 10.0300425,182.331408 L79.9012411,152.785131 C83.0808121,151.437389 86.7561785,151.84461 89.5445823,153.85405 L121.955875,177.213176 C125.075701,179.461732 124.527889,184.16028 120.970229,185.668592 L51.0987331,215.214869 C47.9191621,216.562611 44.2437956,216.15539 41.4556891,214.14595" id="Fill-4" fill="#45C1C0"></path>
                    <path d="M77.061281,103.364543 L81.6168528,64.3673872 C82.0562212,60.6052631 86.5948476,58.716385 89.7714928,60.9734858 L154.008837,107.99309 C156.832656,109.999498 158.329595,113.290923 157.938642,116.635323 L153.383373,155.632767 C152.944005,159.394602 148.405076,161.28377 145.22843,159.026379 L80.9913884,112.006775 C78.1672667,110.000367 76.6706305,106.708942 77.061281,103.364543" id="Fill-6" fill="#FFC63E"></path>
                </g>
            </g>
        </g>
    </g>
</svg>